<svg width="100" height="100" viewBox="0 0 100 100" fill="none" xmlns="http://www.w3.org/2000/svg">
  <!-- Фон логотипа -->
  <rect width="100" height="100" rx="20" fill="#000000"/>
  
  <!-- Буква R -->
  <path d="M30 25H45C50.5228 25 55 29.4772 55 35C55 39.4183 52.1747 43.1599 48.1715 44.4202L55 55H45L38.5 45H35V55H30V25ZM35 30V40H45C47.7614 40 50 37.7614 50 35C50 32.2386 47.7614 30 45 30H35Z" fill="#FFFFFF"/>
  
  <!-- Кодер - символы кода -->
  <path d="M65 30L75 40L65 50" stroke="#FF0000" stroke-width="4" stroke-linecap="round" stroke-linejoin="round"/>
  
  <!-- Нижняя часть логотипа -->
  <text x="30" y="75" font-family="Arial" font-size="14" font-weight="bold" fill="#FFFFFF">RuCoder</text>
  
  <!-- Декоративные элементы -->
  <circle cx="80" cy="70" r="3" fill="#FF0000"/>
  <circle cx="20" cy="70" r="3" fill="#FF0000"/>
</svg>